:FULLY-SPECIFIED
:FORCE-ALL-JOINTS-BE-3DOF
:DEGREES
3160
root 0.947088 16.9255 -33.3592 5.9961 5.03435 -3.95259
lfemur -18.3494 -2.58474 -8.16687
ltibia 35.0831 -0 0
lfoot -16.3361 7.92352 -0.00381195
ltoes -39.3744 0 0
rfemur -19.0886 -0.0341347 18.6153
rtibia 38.5407 -0 0
rfoot -11.9203 -21.0056 -0.00192662
rtoes -16.5413 0 0
lowerback 5.46666 1.56349 -0.597157
upperback -3.97946 2.1754 1.88359
thorax -7.33215 1.15603 2.05391
lowerneck -5.575 -5.19283 -7.95432
upperneck 9.64044 -6.86463 6.0662
head 4.21514 -3.36625 2.70231
lclavicle 4.61363e-14 1.66482e-14 0
lhumerus -33.4375 -17.7844 94.5941
lradius 50.5205 -0 0
lwrist -9.50166 0 0
lhand -34.0591 30.6959 -0.00303215
lfingers 7.12502 -0 0
lthumb -7.23658 60.5529 -0.00303263
rclavicle 4.61363e-14 1.66482e-14 0
rhumerus -35.493 13.0982 -81.3379
rradius 48.7478 -0 0
rwrist 1.5056 0 0
rhand -28.814 -33.7577 0.000685913
rfingers 7.12502 -0 0
rthumb -2.17207 -63.7277 0.000698467
3161
root 0.953915 16.9282 -33.3548 5.99496 5.00838 -3.95485
lfemur -18.3374 -2.56657 -8.16669
ltibia 35.098 -0 0
lfoot -16.341 7.92366 -0.00363386
ltoes -39.4222 0 0
rfemur -19.0938 -0.0358366 18.6071
rtibia 38.5439 -0 0
rfoot -11.9208 -20.9873 -0.00182753
rtoes -16.5348 0 0
lowerback 5.46018 1.56842 -0.59772
upperback -3.96638 2.18138 1.87958
thorax -7.31446 1.15873 2.04965
lowerneck -5.5788 -5.19357 -7.94822
upperneck 9.62273 -6.86188 6.05635
head 4.21626 -3.36671 2.69958
lclavicle 4.61363e-14 1.66482e-14 0
lhumerus -33.4004 -17.7802 94.5894
lradius 50.4303 -0 0
lwrist -9.50622 0 0
lhand -34.0593 30.7217 -0.00283361
lfingers 7.12502 -0 0
lthumb -7.23684 60.5786 -0.00283391
rclavicle 4.61363e-14 1.66482e-14 0
rhumerus -35.4794 13.0711 -81.3618
rradius 48.7171 -0 0
rwrist 1.48797 0 0
rhand -28.7987 -33.7271 0.000661357
rfingers 7.12502 -0 0
rthumb -2.15723 -63.6974 0.000673638
3162
root 0.960742 16.9308 -33.3504 5.99499 4.98511 -3.95317
lfemur -18.33 -2.54485 -8.16752
ltibia 35.1058 -0 0
lfoot -16.3476 7.91706 -0.00336887
ltoes -39.4688 0 0
rfemur -19.1058 -0.0425933 18.6074
rtibia 38.558 -0 0
rfoot -11.9258 -20.9702 -0.00166677
rtoes -16.5277 0 0
lowerback 5.45799 1.57303 -0.596559
upperback -3.95292 2.18709 1.87572
thorax -7.29881 1.16121 2.04452
lowerneck -5.56877 -5.19135 -7.9499
upperneck 9.59622 -6.85734 6.04511
head 4.208 -3.37092 2.70229
lclavicle 4.61363e-14 1.66482e-14 0
lhumerus -33.3561 -17.7907 94.5902
lradius 50.3558 -0 0
lwrist -9.4917 0 0
lhand -34.0547 30.7504 -0.00257811
lfingers 7.12502 -0 0
lthumb -7.23233 60.6073 -0.00257767
rclavicle 4.61363e-14 1.66482e-14 0
rhumerus -35.4642 13.0611 -81.3856
rradius 48.7256 -0 0
rwrist 1.46139 0 0
rhand -28.7833 -33.6975 0.000684354
rfingers 7.12502 -0 0
rthumb -2.14239 -63.6681 0.000693045
3163
root 0.967569 16.9335 -33.346 5.99224 4.961 -3.94846
lfemur -18.3236 -2.52032 -8.16956
ltibia 35.1065 -0 0
lfoot -16.3551 7.90795 -0.00303591
ltoes -39.5147 0 0
rfemur -19.1217 -0.0512404 18.6064
rtibia 38.5773 -0 0
rfoot -11.9336 -20.9526 -0.0014563
rtoes -16.532 0 0
lowerback 5.45861 1.57777 -0.594303
upperback -3.94015 2.1931 1.87196
thorax -7.28551 1.1638 2.03876
lowerneck -5.55623 -5.18755 -7.95082
upperneck 9.56652 -6.85071 6.0325
head 4.20484 -3.36332 2.70571
lclavicle 4.61363e-14 1.66482e-14 0
lhumerus -33.3037 -17.8031 94.5917
lradius 50.2729 -0 0
lwrist -9.48117 0 0
lhand -34.0466 30.7809 -0.00228341
lfingers 7.12502 -0 0
lthumb -7.22453 60.6381 -0.00228172
rclavicle 4.61363e-14 1.66482e-14 0
rhumerus -35.4474 13.0544 -81.4076
rradius 48.7444 -0 0
rwrist 1.4195 0 0
rhand -28.7642 -33.668 0.000753512
rfingers 7.12502 -0 0
rthumb -2.12391 -63.6387 0.000755544
3164
root 0.974396 16.9361 -33.3415 5.9976 4.9328 -3.9445
lfemur -18.3146 -2.49371 -8.17297
ltibia 35.1001 -0 0
lfoot -16.3626 7.90057 -0.00265285
ltoes -39.5601 0 0
rfemur -19.1382 -0.0598013 18.6043
rtibia 38.5963 -0 0
rfoot -11.9425 -20.9327 -0.00120874
rtoes -16.527 0 0
lowerback 5.46056 1.58311 -0.591579
upperback -3.92915 2.2 1.86824
thorax -7.27492 1.16683 2.03265
lowerneck -5.54338 -5.18187 -7.95057
upperneck 9.53921 -6.84167 6.01849
head 4.19975 -3.36002 2.70921
lclavicle 4.61363e-14 1.66482e-14 0
lhumerus -33.2425 -17.8043 94.5889
lradius 50.158 -0 0
lwrist -9.48395 0 0
lhand -34.0366 30.8124 -0.0019658
lfingers 7.12502 -0 0
lthumb -7.21492 60.6698 -0.00196248
rclavicle 4.61363e-14 1.66482e-14 0
rhumerus -35.4293 13.037 -81.4263
rradius 48.7447 -0 0
rwrist 1.38119 0 0
rhand -28.7375 -33.6376 0.000862955
rfingers 7.12502 -0 0
rthumb -2.09815 -63.6086 0.000855708
3165
root 0.981222 16.9388 -33.3371 5.99974 4.89678 -3.94079
lfemur -18.2997 -2.46578 -8.17795
ltibia 35.0968 -0 0
lfoot -16.3692 7.89916 -0.00223623
ltoes -39.6056 0 0
rfemur -19.1518 -0.0662992 18.6013
rtibia 38.6094 -0 0
rfoot -11.9508 -20.9089 -0.000937175
rtoes -16.5201 0 0
lowerback 5.46233 1.58951 -0.589018
upperback -3.921 2.20834 1.86453
thorax -7.26736 1.17063 2.02642
lowerneck -5.53237 -5.174 -7.94872
upperneck 9.51991 -6.82989 6.0031
head 4.1974 -3.35536 2.71243
lclavicle 4.61363e-14 1.66482e-14 0
lhumerus -33.1716 -17.7817 94.5768
lradius 49.987 -0 0
lwrist -9.50935 0 0
lhand -34.0263 30.8436 -0.00163969
lfingers 7.12502 -0 0
lthumb -7.20496 60.7012 -0.00163455
rclavicle 4.61363e-14 1.66482e-14 0
rhumerus -35.4098 12.9951 -81.4398
rradius 48.6974 -0 0
rwrist 1.3485 0 0
rhand -28.6995 -33.6055 0.00100175
rfingers 7.12502 -0 0
rthumb -2.06147 -63.5767 0.000983273
3166
root 0.988049 16.9415 -33.3327 6.00212 4.84955 -3.93969
lfemur -18.2751 -2.43726 -8.18467
ltibia 35.089 -0 0
lfoot -16.3742 7.90796 -0.00180176
ltoes -39.6515 0 0
rfemur -19.1593 -0.0687567 18.5975
rtibia 38.611 -0 0
rfoot -11.9569 -20.8794 -0.000655671
rtoes -16.5115 0 0
lowerback 5.46246 1.59742 -0.587246
upperback -3.91678 2.21872 1.86078
thorax -7.26319 1.17551 2.02035
lowerneck -5.5254 -5.16364 -7.94485
upperneck 9.5142 -6.81504 5.98634
head 4.19956 -3.34912 2.71495
lclavicle 4.61363e-14 1.66482e-14 0
lhumerus -33.0903 -17.7222 94.5507
lradius 49.7363 -0 0
lwrist -9.56669 0 0
lhand -34.0172 30.8735 -0.0013175
lfingers 7.12502 -0 0
lthumb -7.19613 60.7314 -0.00131054
rclavicle 4.61363e-14 1.66482e-14 0
rhumerus -35.3891 12.9149 -81.4467
rradius 48.5735 -0 0
rwrist 1.3277 0 0
rhand -28.6465 -33.5708 0.00115275
rfingers 7.12502 -0 0
rthumb -2.01023 -63.5422 0.00112204
3167
root 0.994876 16.9441 -33.3282 6.00454 4.78762 -3.94282
lfemur -18.2375 -2.40888 -8.1933
ltibia 35.0729 -0 0
lfoot -16.3765 7.93121 -0.00136539
ltoes -39.6982 0 0
rfemur -19.1572 -0.0651957 18.5932
rtibia 38.5955 -0 0
rfoot -11.959 -20.8425 -0.000380129
rtoes -16.501 0 0
lowerback 5.45944 1.60732 -0.586895
upperback -3.91756 2.23171 1.85694
thorax -7.26272 1.1818 2.01467
lowerneck -5.52463 -5.15048 -7.93854
upperneck 9.52768 -6.7968 5.96819
head 4.20796 -3.34108 2.71634
lclavicle 4.61363e-14 1.66482e-14 0
lhumerus -32.9979 -17.613 94.5056
lradius 49.3818 -0 0
lwrist -9.66527 0 0
lhand -34.0107 30.9012 -0.00100974
lfingers 7.12502 -0 0
lthumb -7.18991 60.7592 -0.00100125
rclavicle 4.61363e-14 1.66482e-14 0
rhumerus -35.3673 12.7824 -81.4453
rradius 48.3443 -0 0
rwrist 1.32505 0 0
rhand -28.5745 -33.5325 0.00129081
rfingers 7.12502 -0 0
rthumb -1.94077 -63.5043 0.00124823
3168
root 1.0017 16.9468 -33.3238 6.00677 4.70752 -3.95183
lfemur -18.1832 -2.38138 -8.20402
ltibia 35.0464 -0 0
lfoot -16.3754 7.97314 -0.000945006
ltoes -39.7462 0 0
rfemur -19.1422 -0.0536375 18.5884
rtibia 38.5573 -0 0
rfoot -11.9555 -20.7966 -0.000129732
rtoes -16.4894 0 0
lowerback 5.45179 1.61965 -0.588594
upperback -3.92442 2.24788 1.85297
thorax -7.26632 1.18982 2.00965
lowerneck -5.53224 -5.13421 -7.92937
upperneck 9.56595 -6.77483 5.94869
head 4.22437 -3.33102 2.71618
lclavicle 4.61363e-14 1.66482e-14 0
lhumerus -32.8938 -17.4411 94.437
lradius 48.8999 -0 0
lwrist -9.81441 0 0
lhand -34.0085 30.9255 -0.000725486
lfingers 7.12502 -0 0
lthumb -7.18776 60.7835 -0.000716021
rclavicle 4.61363e-14 1.66482e-14 0
rhumerus -35.3445 12.5838 -81.4341
rradius 47.9806 -0 0
rwrist 1.34681 0 0
rhand -28.48 -33.4897 0.00138043
rfingers 7.12502 -0 0
rthumb -1.84946 -63.4621 0.00132824
3169
root 1.00853 16.9494 -33.3194 6.00861 4.60575 -3.96834
lfemur -18.1087 -2.3555 -8.21699
ltibia 35.0072 -0 0
lfoot -16.37 8.038 -0.000562832
ltoes -39.7959 0 0
rfemur -19.1109 -0.0321024 18.5835
rtibia 38.4908 -0 0
rfoot -11.9447 -20.7398 7.11318e-05
rtoes -16.4746 0 0
lowerback 5.43801 1.63489 -0.592975
upperback -3.93845 2.2678 1.84882
thorax -7.2743 1.19989 2.00555
lowerneck -5.5504 -5.11453 -7.91693
upperneck 9.6346 -6.74879 5.92786
head 4.25053 -3.31873 2.71405
lclavicle 4.61363e-14 1.66482e-14 0
lhumerus -32.7777 -17.1935 94.3403
lradius 48.2665 -0 0
lwrist -10.0234 0 0
lhand -34.012 30.9453 -0.000473011
lfingers 7.12502 -0 0
lthumb -7.19117 60.8032 -0.000463495
rclavicle 4.61363e-14 1.66482e-14 0
rhumerus -35.3209 12.3051 -81.4114
rradius 47.4535 -0 0
rwrist 1.39924 0 0
rhand -28.3591 -33.4416 0.00137281
rfingers 7.12502 -0 0
rthumb -1.73267 -63.4146 0.00131587
3170
root 1.01536 16.9521 -33.315 6.00986 4.47885 -3.99401
lfemur -18.0104 -2.33195 -8.23239
ltibia 34.9532 -0 0
lfoot -16.3595 8.13001 -0.000248403
ltoes -39.8476 0 0
rfemur -19.0598 0.00138964 18.5784
rtibia 38.3904 -0 0
rfoot -11.9249 -20.6705 0.00019044
rtoes -16.458 0 0
lowerback 5.41663 1.65348 -0.600671
upperback -3.96072 2.29206 1.84443
thorax -7.28701 1.21235 2.0026
lowerneck -5.58129 -5.09112 -7.9008
upperneck 9.73921 -6.71832 5.90573
head 4.28819 -3.30398 2.70952
lclavicle 4.61363e-14 1.66482e-14 0
lhumerus -32.6493 -16.8573 94.211
lradius 47.4579 -0 0
lwrist -10.3016 0 0
lhand -34.0229 30.9597 -0.000260808
lfingers 7.12502 -0 0
lthumb -7.2016 60.8173 -0.000252549
rclavicle 4.61363e-14 1.66482e-14 0
rhumerus -35.2967 11.9326 -81.3757
rradius 46.7342 -0 0
rwrist 1.4886 0 0
rhand -28.208 -33.3872 0.00120229
rfingers 7.12502 -0 0
rthumb -1.58673 -63.361 0.00114903
3171
root 1.02218 16.9547 -33.3105 6.01037 4.32333 -4.03044
lfemur -17.885 -2.31147 -8.25038
ltibia 34.8823 -0 0
lfoot -16.3429 8.25343 -4.22148e-05
ltoes -39.9018 0 0
rfemur -18.9857 0.0488193 18.5736
rtibia 38.2506 -0 0
rfoot -11.8944 -20.5869 0.000185597
rtoes -16.4396 0 0
lowerback 5.38614 1.6759 -0.612318
upperback -3.99231 2.32122 1.83975
thorax -7.30479 1.22751 2.00108
lowerneck -5.62708 -5.06367 -7.88056
upperneck 9.88538 -6.68309 5.88235
head 4.33911 -3.28655 2.70217
lclavicle 4.61363e-14 1.66482e-14 0
lhumerus -32.5086 -16.4193 94.0449
lradius 46.4502 -0 0
lwrist -10.6583 0 0
lhand -34.0425 30.9677 -9.8825e-05
lfingers 7.12502 -0 0
lthumb -7.22053 60.8246 -9.35714e-05
rclavicle 4.61363e-14 1.66482e-14 0
rhumerus -35.2724 11.4524 -81.3256
rradius 45.7935 -0 0
rwrist 1.62116 0 0
rhand -28.0229 -33.3257 0.000782166
rfingers 7.12502 -0 0
rthumb -1.40803 -63.3004 0.000745802
